<svg width="16" height="16" viewBox="0 0 16 16" fill="none" xmlns="http://www.w3.org/2000/svg">
<path d="M4.25 4.25V1.25C4.25 1.05109 4.32902 0.860322 4.46967 0.71967C4.61032 0.579018 4.80109 0.5 5 0.5H14.75C14.9489 0.5 15.1397 0.579018 15.2803 0.71967C15.421 0.860322 15.5 1.05109 15.5 1.25V11C15.5 11.1989 15.421 11.3897 15.2803 11.5303C15.1397 11.671 14.9489 11.75 14.75 11.75H11.75V14.7448C11.75 15.1617 11.4133 15.5 10.9948 15.5H1.25525C1.15604 15.5001 1.05779 15.4806 0.966112 15.4427C0.874436 15.4048 0.791139 15.3492 0.720988 15.279C0.650837 15.2089 0.595209 15.1256 0.557289 15.0339C0.519369 14.9422 0.499902 14.844 0.5 14.7448L0.50225 5.00525C0.50225 4.58825 0.839 4.25 1.2575 4.25H4.25ZM5.75 4.25H10.9948C11.4118 4.25 11.75 4.58675 11.75 5.00525V10.25H14V2H5.75V4.25Z" fill="url(#paint0_linear_546_465)"/>
<defs>
<linearGradient id="paint0_linear_546_465" x1="8" y1="0.5" x2="8" y2="15.5" gradientUnits="userSpaceOnUse">
<stop stop-color="#E3B53C"/>
<stop offset="0.520833" stop-color="#FAF2C1"/>
<stop offset="1" stop-color="#E3B53C"/>
</linearGradient>
</defs>
</svg>
