<svg width="12" height="14" viewBox="0 0 12 14" fill="none" xmlns="http://www.w3.org/2000/svg">
<path d="M7.93504 2.60838C8.35143 2.10524 8.64637 1.41993 8.64637 0.72595C8.64637 0.630527 8.63769 0.535104 8.62035 0.457031C7.94371 0.483056 7.12828 0.90812 6.64249 1.48066C6.2608 1.91439 5.90514 2.60838 5.90514 3.30236C5.90514 3.40646 5.92249 3.51056 5.93116 3.54525C5.97454 3.55393 6.04393 3.5626 6.11333 3.5626C6.72057 3.5626 7.48395 3.15489 7.93504 2.60838ZM8.41215 3.71008C7.3972 3.71008 6.5731 4.32598 6.04393 4.32598C5.48007 4.32598 4.74272 3.74477 3.85789 3.74477C2.18366 3.74477 0.483398 5.13274 0.483398 7.74385C0.483398 9.37471 1.10798 11.0923 1.88871 12.2027C2.55667 13.1396 3.13788 13.9116 3.97934 13.9116C4.81212 13.9116 5.17646 13.3564 6.20876 13.3564C7.2584 13.3564 7.49262 13.8943 8.41215 13.8943C9.323 13.8943 9.93024 13.0615 10.5028 12.2374C11.1447 11.2918 11.4136 10.3723 11.4223 10.3289C11.3703 10.3116 9.62662 9.60025 9.62662 7.60505C9.62662 5.87877 10.9972 5.10672 11.0753 5.04599C10.1731 3.74477 8.79384 3.71008 8.41215 3.71008Z" fill="white"/>
</svg>
