<svg width="22" height="18" viewBox="0 0 22 18" fill="none" xmlns="http://www.w3.org/2000/svg">
<path d="M0 3.5C0 2.77065 0.289731 2.07118 0.805456 1.55546C1.32118 1.03973 2.02065 0.75 2.75 0.75H19.25C19.9793 0.75 20.6788 1.03973 21.1945 1.55546C21.7103 2.07118 22 2.77065 22 3.5V10.375H0V3.5ZM15.8125 4.875C15.6302 4.875 15.4553 4.94743 15.3264 5.07636C15.1974 5.2053 15.125 5.38016 15.125 5.5625V6.9375C15.125 7.11984 15.1974 7.2947 15.3264 7.42364C15.4553 7.55257 15.6302 7.625 15.8125 7.625H18.5625C18.7448 7.625 18.9197 7.55257 19.0486 7.42364C19.1776 7.2947 19.25 7.11984 19.25 6.9375V5.5625C19.25 5.38016 19.1776 5.2053 19.0486 5.07636C18.9197 4.94743 18.7448 4.875 18.5625 4.875H15.8125ZM0 13.125V14.5C0 15.2293 0.289731 15.9288 0.805456 16.4445C1.32118 16.9603 2.02065 17.25 2.75 17.25H19.25C19.9793 17.25 20.6788 16.9603 21.1945 16.4445C21.7103 15.9288 22 15.2293 22 14.5V13.125H0Z" fill="#E3B53C"/>
</svg>
