<svg width="30" height="30" viewBox="0 0 30 30" fill="none" xmlns="http://www.w3.org/2000/svg">
<path d="M3.66683 9.33301H26.3335V27.7497C26.3335 28.1254 26.1842 28.4857 25.9186 28.7514C25.6529 29.0171 25.2926 29.1663 24.9168 29.1663H5.0835C4.70777 29.1663 4.34744 29.0171 4.08176 28.7514C3.81609 28.4857 3.66683 28.1254 3.66683 27.7497V9.33301ZM7.91683 5.08301V2.24967C7.91683 1.87395 8.06608 1.51362 8.33176 1.24794C8.59744 0.982263 8.95777 0.833008 9.3335 0.833008H20.6668C21.0426 0.833008 21.4029 0.982263 21.6686 1.24794C21.9342 1.51362 22.0835 1.87395 22.0835 2.24967V5.08301H29.1668V7.91634H0.833496V5.08301H7.91683ZM10.7502 3.66634V5.08301H19.2502V3.66634H10.7502ZM10.7502 14.9997V23.4997H13.5835V14.9997H10.7502ZM16.4168 14.9997V23.4997H19.2502V14.9997H16.4168Z" fill="url(#paint0_linear_546_233)"/>
<defs>
<linearGradient id="paint0_linear_546_233" x1="15.0002" y1="0.833008" x2="15.0002" y2="29.1663" gradientUnits="userSpaceOnUse">
<stop stop-color="#E3B53C"/>
<stop offset="0.520833" stop-color="#FAF2C1"/>
<stop offset="1" stop-color="#E3B53C"/>
</linearGradient>
</defs>
</svg>
