<svg width="21" height="21" viewBox="0 0 21 21" fill="none" xmlns="http://www.w3.org/2000/svg">
<path d="M13.9167 9.31133C14.2941 9.31133 14.6176 9.17652 14.8873 8.90691C15.1569 8.63729 15.2917 8.31376 15.2917 7.93634C15.2917 7.55891 15.1569 7.23539 14.8873 6.96576C14.6176 6.69615 14.2941 6.56134 13.9167 6.56134C13.5392 6.56134 13.218 6.69456 12.9529 6.96099C12.6878 7.22742 12.5552 7.55094 12.5552 7.93154C12.5552 8.31216 12.6876 8.63729 12.9523 8.90691C13.217 9.17652 13.5385 9.31133 13.9167 9.31133ZM7.08334 9.31133C7.46078 9.31133 7.78205 9.17811 8.04716 8.91168C8.31227 8.64525 8.44482 8.32173 8.44482 7.94113C8.44482 7.56051 8.31245 7.23539 8.04771 6.96576C7.78299 6.69615 7.46153 6.56134 7.08334 6.56134C6.70592 6.56134 6.38239 6.69615 6.11276 6.96576C5.84315 7.23539 5.70835 7.55891 5.70835 7.93634C5.70835 8.31376 5.84315 8.63729 6.11276 8.90691C6.38239 9.17652 6.70592 9.31133 7.08334 9.31133ZM10.5 15.7468C11.5813 15.7468 12.5719 15.4512 13.4719 14.86C14.3719 14.2688 15.0125 13.4696 15.3938 12.4624H5.60626C6.00349 13.4696 6.6481 14.2688 7.5401 14.86C8.43212 15.4512 9.41876 15.7468 10.5 15.7468ZM10.5008 20.4218C9.12943 20.4218 7.84046 20.1634 6.63386 19.6468C5.42727 19.1301 4.37467 18.4225 3.47605 17.5238C2.57744 16.6252 1.86979 15.5729 1.35311 14.3668C0.836452 13.1607 0.578125 11.8719 0.578125 10.5006C0.578125 9.12929 0.83646 7.84033 1.35313 6.63372C1.8698 5.42713 2.57673 4.37429 3.47392 3.4752C4.37111 2.57611 5.42309 1.8662 6.62986 1.34549C7.83664 0.8248 9.12607 0.564453 10.4981 0.564453C11.8702 0.564453 13.1601 0.824457 14.3678 1.34446C15.5754 1.86447 16.6285 2.57342 17.5269 3.47129C18.4253 4.36919 19.1347 5.42199 19.655 6.6297C20.1753 7.83742 20.4354 9.12786 20.4354 10.501C20.4354 11.8736 20.1751 13.1631 19.6544 14.3696C19.1337 15.576 18.4238 16.628 17.5247 17.5255C16.6256 18.423 15.573 19.1301 14.3669 19.6468C13.1608 20.1634 11.8721 20.4218 10.5008 20.4218ZM10.5 18.5238C12.7379 18.5238 14.6348 17.746 16.1904 16.1903C17.7461 14.6346 18.524 12.7378 18.524 10.4999C18.524 8.26195 17.7461 6.36514 16.1904 4.80946C14.6348 3.25377 12.7379 2.47592 10.5 2.47592C8.26208 2.47592 6.36528 3.25377 4.8096 4.80946C3.2539 6.36514 2.47606 8.26195 2.47606 10.4999C2.47606 12.7378 3.2539 14.6346 4.8096 16.1903C6.36528 17.746 8.26208 18.5238 10.5 18.5238Z" fill="#FFF0B8" fill-opacity="0.5"/>
</svg>
