<svg width="16" height="16" viewBox="0 0 16 16" fill="none" xmlns="http://www.w3.org/2000/svg">
<path d="M3.73478 12.3844L0.307861 15.0767V0.845891C0.307861 0.641878 0.388905 0.446221 0.533164 0.301963C0.677422 0.157704 0.873079 0.0766602 1.07709 0.0766602H14.9232C15.1273 0.0766602 15.3229 0.157704 15.4672 0.301963C15.6114 0.446221 15.6925 0.641878 15.6925 0.845891V11.6151C15.6925 11.8191 15.6114 12.0148 15.4672 12.159C15.3229 12.3033 15.1273 12.3844 14.9232 12.3844H3.73478ZM4.15402 5.46128V6.99974H5.69248V5.46128H4.15402ZM7.23094 5.46128V6.99974H8.7694V5.46128H7.23094ZM10.3079 5.46128V6.99974H11.8463V5.46128H10.3079Z" fill="url(#paint0_linear_491_268)"/>
<defs>
<linearGradient id="paint0_linear_491_268" x1="8.00017" y1="0.0766602" x2="8.00017" y2="15.0767" gradientUnits="userSpaceOnUse">
<stop stop-color="#E3B53C"/>
<stop offset="0.520833" stop-color="#FAF2C1"/>
<stop offset="1" stop-color="#E3B53C"/>
</linearGradient>
</defs>
</svg>
