<svg width="20" height="21" viewBox="0 0 20 21" fill="none" xmlns="http://www.w3.org/2000/svg">
<path d="M19.1668 17.333H0.833496V15.4997H1.75016V9.11142C1.75016 4.53909 5.44433 0.833008 10.0002 0.833008C14.556 0.833008 18.2502 4.53909 18.2502 9.11142V15.4997H19.1668V17.333ZM3.5835 15.4997H16.4168V9.11142C16.4168 5.55201 13.544 2.66634 10.0002 2.66634C6.45633 2.66634 3.5835 5.55201 3.5835 9.11142V15.4997ZM7.7085 18.2497H12.2918C12.2918 18.8575 12.0504 19.4404 11.6206 19.8701C11.1908 20.2999 10.608 20.5413 10.0002 20.5413C9.39237 20.5413 8.80948 20.2999 8.37971 19.8701C7.94994 19.4404 7.7085 18.8575 7.7085 18.2497Z" fill="url(#paint0_linear_450_643)"/>
<defs>
<linearGradient id="paint0_linear_450_643" x1="10.0002" y1="0.833008" x2="10.0002" y2="20.5413" gradientUnits="userSpaceOnUse">
<stop stop-color="#E3B53C"/>
<stop offset="0.520833" stop-color="#FAF2C1"/>
<stop offset="1" stop-color="#E3B53C"/>
</linearGradient>
</defs>
</svg>
