<svg width="16" height="21" viewBox="0 0 16 21" fill="none" xmlns="http://www.w3.org/2000/svg">
<path d="M0.666504 20.167C0.666504 18.2221 1.43912 16.3568 2.81439 14.9815C4.18965 13.6063 6.05492 12.8337 7.99984 12.8337C9.94476 12.8337 11.81 13.6063 13.1853 14.9815C14.5606 16.3568 15.3332 18.2221 15.3332 20.167H13.4998C13.4998 18.7083 12.9204 17.3094 11.8889 16.2779C10.8575 15.2465 9.45853 14.667 7.99984 14.667C6.54115 14.667 5.1422 15.2465 4.11075 16.2779C3.0793 17.3094 2.49984 18.7083 2.49984 20.167H0.666504ZM7.99984 11.917C4.96109 11.917 2.49984 9.45574 2.49984 6.41699C2.49984 3.37824 4.96109 0.916992 7.99984 0.916992C11.0386 0.916992 13.4998 3.37824 13.4998 6.41699C13.4998 9.45574 11.0386 11.917 7.99984 11.917ZM7.99984 10.0837C10.0257 10.0837 11.6665 8.44283 11.6665 6.41699C11.6665 4.39116 10.0257 2.75033 7.99984 2.75033C5.974 2.75033 4.33317 4.39116 4.33317 6.41699C4.33317 8.44283 5.974 10.0837 7.99984 10.0837Z" fill="url(#paint0_linear_450_815)"/>
<defs>
<linearGradient id="paint0_linear_450_815" x1="7.99984" y1="0.916992" x2="7.99984" y2="20.167" gradientUnits="userSpaceOnUse">
<stop stop-color="#E3B53C"/>
<stop offset="0.520833" stop-color="#FAF2C1"/>
<stop offset="1" stop-color="#E3B53C"/>
</linearGradient>
</defs>
</svg>
