<svg width="21" height="21" viewBox="0 0 21 21" fill="none" xmlns="http://www.w3.org/2000/svg">
<path d="M9.5415 0.916504C14.3025 0.916504 18.1665 4.7805 18.1665 9.5415C18.1665 14.3025 14.3025 18.1665 9.5415 18.1665C4.7805 18.1665 0.916504 14.3025 0.916504 9.5415C0.916504 4.7805 4.7805 0.916504 9.5415 0.916504ZM9.5415 16.2498C13.2474 16.2498 16.2498 13.2474 16.2498 9.5415C16.2498 5.83467 13.2474 2.83317 9.5415 2.83317C5.83467 2.83317 2.83317 5.83467 2.83317 9.5415C2.83317 13.2474 5.83467 16.2498 9.5415 16.2498ZM17.673 16.3179L20.3841 19.028L19.028 20.3841L16.3179 17.673L17.673 16.3179Z" fill="#FFF0B8"/>
</svg>
